<svg width="102" height="102" viewBox="0 0 102 102" fill="none" xmlns="http://www.w3.org/2000/svg">
<g clip-path="url(#clip0_506_7)">
<rect width="102" height="102" fill="#47A982"/>
<circle cx="51" cy="51" r="46" fill="#D9D9D9"/>
<path d="M11.53 48V42.4H14.38C15.3267 42.4 16.05 42.6467 16.55 43.14C17.0567 43.6333 17.31 44.32 17.31 45.2C17.31 46.08 17.0567 46.7667 16.55 47.26C16.05 47.7533 15.3267 48 14.38 48H11.53ZM13.78 46.35H14.34C14.6067 46.35 14.7833 46.2567 14.87 46.07C14.9567 45.8767 15 45.5867 15 45.2C15 44.8133 14.9567 44.5267 14.87 44.34C14.7833 44.1467 14.6067 44.05 14.34 44.05H13.78V46.35ZM20.4023 42.4V48H18.1023V42.4H20.4023ZM23.8916 48.08C23.365 48.08 22.8983 47.97 22.4916 47.75C22.085 47.5233 21.765 47.1967 21.5316 46.77C21.305 46.3433 21.1916 45.82 21.1916 45.2C21.1916 44.58 21.3116 44.0567 21.5516 43.63C21.7983 43.1967 22.1516 42.87 22.6116 42.65C23.0783 42.43 23.635 42.32 24.2816 42.32C24.9816 42.32 25.575 42.4767 26.0616 42.79C26.5483 43.1033 26.855 43.5467 26.9816 44.12L25.0216 44.59C24.975 44.3167 24.8916 44.14 24.7716 44.06C24.6516 43.98 24.515 43.94 24.3616 43.94C24.1816 43.94 24.025 43.9867 23.8916 44.08C23.7583 44.1667 23.655 44.3033 23.5816 44.49C23.5083 44.67 23.4716 44.9067 23.4716 45.2C23.4716 45.5067 23.505 45.76 23.5716 45.96C23.645 46.1533 23.755 46.2967 23.9016 46.39C24.055 46.4833 24.2483 46.53 24.4816 46.53C24.5883 46.53 24.6816 46.5167 24.7616 46.49C24.8416 46.4567 24.9083 46.4167 24.9616 46.37C25.015 46.3167 25.055 46.26 25.0816 46.2C25.1083 46.1333 25.1216 46.0633 25.1216 45.99H24.2616V44.91H26.9216V48H25.5316L25.4616 47.17C25.335 47.4167 25.145 47.63 24.8916 47.81C24.645 47.99 24.3116 48.08 23.8916 48.08ZM30.1484 42.4V48H27.8484V42.4H30.1484ZM35.0477 42.84V48H32.7577V42.84H35.0477ZM36.8577 42.4V44.08H30.9477V42.4H36.8577ZM36.3018 48L38.2218 42.4H40.9818L42.9018 48H40.6518L40.4318 47.08H38.6618L38.4318 48H36.3018ZM39.0518 45.65H40.0518L39.5618 43.9L39.0518 45.65ZM45.6952 46.32H48.3552V48H43.3952V42.4H45.6952V46.32ZM49.385 48L47.795 42.4H50.255L50.765 45.17L50.965 46.38L51.645 42.4H53.985L54.705 46.38L54.895 45.17L55.405 42.4H57.825L56.235 48H53.485L53.245 46.81L52.845 44.45H52.825L52.455 46.81L52.225 48H49.385ZM58.278 48V42.4H63.368V43.93H60.528V44.47H62.738V45.91H60.528V46.47H63.378V48H58.278ZM66.457 46.32H69.117V48H64.157V42.4H66.457V46.32ZM72.2089 46.32H74.8689V48H69.9089V42.4H72.2089V46.32Z" fill="#0C0C0E"/>
<g filter="url(#filter0_d_506_7)">
<path d="M24.98 64H20.22L19.62 61.48H16.06L15.44 64H10.8L15.08 50.8H20.68L24.98 64ZM16.76 58.58H18.94L17.86 54L16.76 58.58ZM37.6617 59.96C37.4217 60.9867 37.0084 61.8133 36.4217 62.44C35.8484 63.0667 35.1484 63.52 34.3217 63.8C33.4951 64.0667 32.5751 64.2 31.5617 64.2C30.1751 64.2 28.9751 63.9333 27.9617 63.4C26.9617 62.8667 26.1884 62.0933 25.6417 61.08C25.1084 60.0667 24.8417 58.84 24.8417 57.4C24.8417 55.96 25.1084 54.7333 25.6417 53.72C26.1884 52.7067 26.9617 51.9333 27.9617 51.4C28.9751 50.8667 30.1751 50.6 31.5617 50.6C32.5351 50.6 33.4417 50.74 34.2817 51.02C35.1217 51.2867 35.8284 51.7133 36.4017 52.3C36.9884 52.8867 37.3751 53.6533 37.5617 54.6L33.5617 56.16C33.4551 55.2933 33.2351 54.7333 32.9017 54.48C32.5817 54.2267 32.1751 54.1 31.6817 54.1C31.2284 54.1 30.8417 54.22 30.5217 54.46C30.2151 54.6867 29.9817 55.0467 29.8217 55.54C29.6751 56.02 29.6017 56.64 29.6017 57.4C29.6017 58.1467 29.6684 58.7667 29.8017 59.26C29.9484 59.7533 30.1817 60.12 30.5017 60.36C30.8217 60.5867 31.2484 60.7 31.7817 60.7C32.2617 60.7 32.6551 60.56 32.9617 60.28C33.2684 59.9867 33.4617 59.5267 33.5417 58.9L37.6617 59.96ZM51.1969 59.96C50.9569 60.9867 50.5435 61.8133 49.9569 62.44C49.3835 63.0667 48.6835 63.52 47.8569 63.8C47.0302 64.0667 46.1102 64.2 45.0969 64.2C43.7102 64.2 42.5102 63.9333 41.4969 63.4C40.4969 62.8667 39.7235 62.0933 39.1769 61.08C38.6435 60.0667 38.3769 58.84 38.3769 57.4C38.3769 55.96 38.6435 54.7333 39.1769 53.72C39.7235 52.7067 40.4969 51.9333 41.4969 51.4C42.5102 50.8667 43.7102 50.6 45.0969 50.6C46.0702 50.6 46.9769 50.74 47.8169 51.02C48.6569 51.2867 49.3635 51.7133 49.9369 52.3C50.5235 52.8867 50.9102 53.6533 51.0969 54.6L47.0969 56.16C46.9902 55.2933 46.7702 54.7333 46.4369 54.48C46.1169 54.2267 45.7102 54.1 45.2169 54.1C44.7635 54.1 44.3769 54.22 44.0569 54.46C43.7502 54.6867 43.5169 55.0467 43.3569 55.54C43.2102 56.02 43.1369 56.64 43.1369 57.4C43.1369 58.1467 43.2035 58.7667 43.3369 59.26C43.4835 59.7533 43.7169 60.12 44.0369 60.36C44.3569 60.5867 44.7835 60.7 45.3169 60.7C45.7969 60.7 46.1902 60.56 46.4969 60.28C46.8035 59.9867 46.9969 59.5267 47.0769 58.9L51.1969 59.96ZM52.332 64V50.8H63.292V54.22H56.992V55.86H62.072V59.02H56.992V60.58H63.532V64H52.332ZM70.6316 50.6C71.8982 50.6 73.0316 50.76 74.0316 51.08C75.0449 51.3867 75.9382 51.8533 76.7116 52.48L74.8316 55.48C74.2049 55.04 73.5449 54.6867 72.8516 54.42C72.1716 54.1533 71.4316 54.02 70.6316 54.02C70.2849 54.02 70.0049 54.0467 69.7916 54.1C69.5916 54.1533 69.4449 54.2267 69.3516 54.32C69.2716 54.4133 69.2316 54.52 69.2316 54.64C69.2316 54.8 69.3516 54.92 69.5916 55C69.8449 55.08 70.1582 55.1667 70.5316 55.26L72.3516 55.68C73.6982 55.9867 74.7116 56.44 75.3916 57.04C76.0849 57.64 76.4316 58.4733 76.4316 59.54C76.4316 60.6067 76.1716 61.4867 75.6516 62.18C75.1316 62.86 74.4249 63.3667 73.5316 63.7C72.6516 64.0333 71.6516 64.2 70.5316 64.2C69.6916 64.2 68.8516 64.1267 68.0116 63.98C67.1716 63.82 66.3916 63.5933 65.6716 63.3C64.9516 62.9933 64.3316 62.6267 63.8116 62.2L65.6516 59.14C66.0382 59.4467 66.5049 59.7267 67.0516 59.98C67.5982 60.22 68.1649 60.4133 68.7516 60.56C69.3382 60.7067 69.8849 60.78 70.3916 60.78C70.7116 60.78 70.9649 60.7533 71.1516 60.7C71.3382 60.6467 71.4649 60.58 71.5316 60.5C71.6116 60.4067 71.6516 60.3 71.6516 60.18C71.6516 59.9933 71.5716 59.8533 71.4116 59.76C71.2649 59.6667 70.9916 59.5733 70.5916 59.48L68.5916 59.04C67.8849 58.88 67.2116 58.6667 66.5716 58.4C65.9316 58.1333 65.4116 57.7467 65.0116 57.24C64.6116 56.72 64.4116 56.02 64.4116 55.14C64.4116 54.2333 64.6516 53.44 65.1316 52.76C65.6249 52.08 66.3316 51.5533 67.2516 51.18C68.1849 50.7933 69.3116 50.6 70.6316 50.6ZM83.6003 50.6C84.867 50.6 86.0003 50.76 87.0003 51.08C88.0136 51.3867 88.907 51.8533 89.6803 52.48L87.8003 55.48C87.1736 55.04 86.5136 54.6867 85.8203 54.42C85.1403 54.1533 84.4003 54.02 83.6003 54.02C83.2536 54.02 82.9736 54.0467 82.7603 54.1C82.5603 54.1533 82.4136 54.2267 82.3203 54.32C82.2403 54.4133 82.2003 54.52 82.2003 54.64C82.2003 54.8 82.3203 54.92 82.5603 55C82.8136 55.08 83.127 55.1667 83.5003 55.26L85.3203 55.68C86.667 55.9867 87.6803 56.44 88.3603 57.04C89.0536 57.64 89.4003 58.4733 89.4003 59.54C89.4003 60.6067 89.1403 61.4867 88.6203 62.18C88.1003 62.86 87.3936 63.3667 86.5003 63.7C85.6203 64.0333 84.6203 64.2 83.5003 64.2C82.6603 64.2 81.8203 64.1267 80.9803 63.98C80.1403 63.82 79.3603 63.5933 78.6403 63.3C77.9203 62.9933 77.3003 62.6267 76.7803 62.2L78.6203 59.14C79.007 59.4467 79.4736 59.7267 80.0203 59.98C80.567 60.22 81.1336 60.4133 81.7203 60.56C82.307 60.7067 82.8536 60.78 83.3603 60.78C83.6803 60.78 83.9336 60.7533 84.1203 60.7C84.307 60.6467 84.4336 60.58 84.5003 60.5C84.5803 60.4067 84.6203 60.3 84.6203 60.18C84.6203 59.9933 84.5403 59.8533 84.3803 59.76C84.2336 59.6667 83.9603 59.5733 83.5603 59.48L81.5603 59.04C80.8536 58.88 80.1803 58.6667 79.5403 58.4C78.9003 58.1333 78.3803 57.7467 77.9803 57.24C77.5803 56.72 77.3803 56.02 77.3803 55.14C77.3803 54.2333 77.6203 53.44 78.1003 52.76C78.5936 52.08 79.3003 51.5533 80.2203 51.18C81.1536 50.7933 82.2803 50.6 83.6003 50.6Z" fill="#47A982"/>
</g>
</g>
<defs>
<filter id="filter0_d_506_7" x="10.3969" y="50.2001" width="79.6828" height="14.4001" filterUnits="userSpaceOnUse" color-interpolation-filters="sRGB">
<feFlood flood-opacity="0" result="BackgroundImageFix"/>
<feColorMatrix in="SourceAlpha" type="matrix" values="0 0 0 0 0 0 0 0 0 0 0 0 0 0 0 0 0 0 127 0" result="hardAlpha"/>
<feOffset/>
<feGaussianBlur stdDeviation="0.2"/>
<feComposite in2="hardAlpha" operator="out"/>
<feColorMatrix type="matrix" values="0 0 0 0 0 0 0 0 0 0 0 0 0 0 0 0 0 0 0.46 0"/>
<feBlend mode="normal" in2="BackgroundImageFix" result="effect1_dropShadow_506_7"/>
<feBlend mode="normal" in="SourceGraphic" in2="effect1_dropShadow_506_7" result="shape"/>
</filter>
<clipPath id="clip0_506_7">
<rect width="102" height="102" fill="white"/>
</clipPath>
</defs>
</svg>
